<?xml version="1.0" encoding="utf-8"?>
<!-- Generator: Adobe Illustrator 23.0.1, SVG Export Plug-In . SVG Version: 6.00 Build 0)  -->
<svg version="1.1" id="Layer_1" xmlns="http://www.w3.org/2000/svg" xmlns:xlink="http://www.w3.org/1999/xlink" x="0px" y="0px"
	 viewBox="0 0 67 67" style="enable-background:new 0 0 67 67;" xml:space="preserve">
<style type="text/css">
	.st0{fill-rule:evenodd;clip-rule:evenodd;fill:#3A589B;}
	.st1{fill-rule:evenodd;clip-rule:evenodd;fill:#FFFFFF;}
</style>
<path class="st0" d="M28.8,51.7h7.5V33.5h5l0.7-6.3h-5.7v-3.1c0-1.6,0.2-2.5,2.5-2.5H42v-6.3h-5c-6,0-8.2,3-8.2,8.2v3.8H25v6.3h3.8
	V51.7z M33.5,67C15,67,0,52,0,33.5S15,0,33.5,0S67,15,67,33.5S52,67,33.5,67z"/>
<path class="st1" d="M28.8,51.7h7.5V33.5h5l0.7-6.3h-5.7v-3.1c0-1.6,0.2-2.5,2.5-2.5H42v-6.3h-5c-6,0-8.2,3-8.2,8.2v3.8H25v6.3h3.8
	V51.7z"/>
</svg>
